<svg xmlns="http://www.w3.org/2000/svg" width="155" height="36" viewBox="0 0 155 36">
  <g id="icon-btn-1" transform="translate(-376 -1174)">
    <g id="Rectangle_2185" data-name="Rectangle 2185" transform="translate(376 1174)" fill="#fff" stroke="#e94560" stroke-width="1">
      <rect width="155" height="36" rx="18" stroke="none"/>
      <rect x="0.5" y="0.5" width="154" height="35" rx="17.5" fill="none"/>
    </g>
    <g id="Group_4609" data-name="Group 4609" transform="translate(2 -3)">
      <path id="Path_5125" data-name="Path 5125" d="M.876-8.844H2.088v3.972H6.18V-8.844h1.2V0H6.18V-3.792H2.088V0H.876ZM9.1-6.42h1.2V0H9.1ZM11.7-.888l3.492-4.548H11.6V-6.42H16.6v.9l-3.5,4.548h3.5V0H11.7Zm8.016.9a1.741,1.741,0,0,1-1.35-.48,2.343,2.343,0,0,1-.438-1.6V-9.156h1.2V-2.22a1.71,1.71,0,0,0,.2.972.9.9,0,0,0,.63.324l.6.072V.012ZM21.528-6.42h1.2V0h-1.2ZM30.192.06a2.626,2.626,0,0,1-1.7-.492A2.624,2.624,0,0,1,27.648-1.9a10.954,10.954,0,0,1-.24-2.544,9.864,9.864,0,0,1,.264-2.526,2.573,2.573,0,0,1,.936-1.458,3.118,3.118,0,0,1,1.872-.492,13.136,13.136,0,0,1,2.892.324v.924a22.241,22.241,0,0,0-2.688-.168,2.128,2.128,0,0,0-1.284.33,1.771,1.771,0,0,0-.618,1.056,9.124,9.124,0,0,0-.174,2.022,9.4,9.4,0,0,0,.174,2.076,1.666,1.666,0,0,0,.588,1.014,2.048,2.048,0,0,0,1.194.294,6.05,6.05,0,0,0,2.028-.4V-3.78H30.624V-4.7a13.629,13.629,0,0,1,2-.12q.528,0,1.128.048V0h-.9l-.18-.612a6.557,6.557,0,0,1-1.146.468A4.468,4.468,0,0,1,30.192.06Zm7.9.012a3.875,3.875,0,0,1-1.632-.288,1.812,1.812,0,0,1-.906-1,5.412,5.412,0,0,1-.294-2,5.436,5.436,0,0,1,.3-2.034,1.764,1.764,0,0,1,.906-.984,4.058,4.058,0,0,1,1.626-.27,3.98,3.98,0,0,1,1.626.276,1.789,1.789,0,0,1,.906.99,5.4,5.4,0,0,1,.3,2.022,5.454,5.454,0,0,1-.294,2.01,1.791,1.791,0,0,1-.9,1A3.94,3.94,0,0,1,38.088.072Zm0-.984a2.241,2.241,0,0,0,.942-.162,1.068,1.068,0,0,0,.516-.66,4.817,4.817,0,0,0,.174-1.494,4.817,4.817,0,0,0-.174-1.494,1.043,1.043,0,0,0-.516-.654,2.317,2.317,0,0,0-.942-.156,2.265,2.265,0,0,0-.942.156,1.057,1.057,0,0,0-.5.654,4.817,4.817,0,0,0-.174,1.494,4.869,4.869,0,0,0,.174,1.506,1.057,1.057,0,0,0,.5.654A2.265,2.265,0,0,0,38.088-.912ZM36.612-7.776a.211.211,0,0,1-.156-.06.2.2,0,0,1-.06-.144V-8.988a.191.191,0,0,1,.216-.216h.552q.2,0,.2.216V-7.98a.18.18,0,0,1-.2.2Zm2.34,0a.191.191,0,0,1-.15-.06.208.208,0,0,1-.054-.144V-8.988q0-.216.2-.216h.564q.2,0,.2.216V-7.98a.2.2,0,0,1-.054.15.2.2,0,0,1-.15.054ZM42.384-6.42h.96l.24.7A4.427,4.427,0,0,1,44.646-6.3a3.31,3.31,0,0,1,1.194-.228,1.781,1.781,0,0,1,1.5.618,2.517,2.517,0,0,1,.48,1.59V0h-1.2V-4.176a1.28,1.28,0,0,0-.324-.918,1.165,1.165,0,0,0-.888-.342,2.78,2.78,0,0,0-.918.144,5.214,5.214,0,0,0-.906.432V0h-1.2ZM51.552.072A2.01,2.01,0,0,1,49.812-.7a4.215,4.215,0,0,1-.564-2.454,6.505,6.505,0,0,1,.234-1.938,1.914,1.914,0,0,1,.762-1.068A2.6,2.6,0,0,1,51.672-6.5a6,6,0,0,1,1.872.348v-3h1.2V0H53.76l-.216-.636a2.9,2.9,0,0,1-.894.486A3.155,3.155,0,0,1,51.552.072Zm.384-.984a3.343,3.343,0,0,0,1.608-.48v-3.9q-.072-.024-.384-.114a4.66,4.66,0,0,0-.588-.132,3.587,3.587,0,0,0-.54-.042,1.737,1.737,0,0,0-.924.21,1.228,1.228,0,0,0-.492.72,5.134,5.134,0,0,0-.156,1.434A5.1,5.1,0,0,0,50.6-1.854a1.254,1.254,0,0,0,.468.72A1.5,1.5,0,0,0,51.936-.912ZM58.92.072a3.684,3.684,0,0,1-1.638-.3,1.738,1.738,0,0,1-.852-1.008,6,6,0,0,1-.258-1.98,6.1,6.1,0,0,1,.258-2,1.694,1.694,0,0,1,.846-1A3.776,3.776,0,0,1,58.908-6.5a4.455,4.455,0,0,1,1.452.192,1.39,1.39,0,0,1,.792.66,2.761,2.761,0,0,1,.252,1.3,1.454,1.454,0,0,1-.492,1.23,2.287,2.287,0,0,1-1.416.378H57.372a3.539,3.539,0,0,0,.162,1.134,1,1,0,0,0,.546.582,2.846,2.846,0,0,0,1.14.18h2v.72q-.66.1-1.164.15A10.794,10.794,0,0,1,58.92.072ZM59.388-3.5A1.106,1.106,0,0,0,60.1-3.69a.816.816,0,0,0,.222-.654,1.275,1.275,0,0,0-.318-1,1.688,1.688,0,0,0-1.1-.276,2,2,0,0,0-.942.18,1.013,1.013,0,0,0-.468.63,4.693,4.693,0,0,0-.138,1.3Zm3.48-2.916h.924l.276,1.08a3.866,3.866,0,0,1,.96-.858A2.131,2.131,0,0,1,66.156-6.5a2.1,2.1,0,0,1,.576.072V-5.2a4.678,4.678,0,0,0-.72-.06,2.389,2.389,0,0,0-1.032.21,3.461,3.461,0,0,0-.912.666V0h-1.2Zm5.16-1.08a.224.224,0,0,1-.156-.054.191.191,0,0,1-.06-.15V-8.712a.191.191,0,0,1,.216-.216h.888a.173.173,0,0,1,.144.06.242.242,0,0,1,.048.156V-7.7q0,.2-.192.2ZM67.86-6.42h1.2V0h-1.2Z" transform="translate(429 1199)" fill="#1c1c1c"/>
      <path id="shipping-fast-solid" d="M19.5,11H19V7.622a1.5,1.5,0,0,0-.441-1.059L15.438,3.441A1.5,1.5,0,0,0,14.378,3H13V1.5A1.5,1.5,0,0,0,11.5,0h-8A1.5,1.5,0,0,0,2,1.5V3H.25A.251.251,0,0,0,0,3.25v.5A.251.251,0,0,0,.25,4h8.5A.251.251,0,0,1,9,4.25v.5A.251.251,0,0,1,8.75,5H1.25A.251.251,0,0,0,1,5.25v.5A.251.251,0,0,0,1.25,6h6.5A.251.251,0,0,1,8,6.25v.5A.251.251,0,0,1,7.75,7H.25A.251.251,0,0,0,0,7.25v.5A.251.251,0,0,0,.25,8h6.5A.251.251,0,0,1,7,8.25v.5A.251.251,0,0,1,6.75,9H2v4a3,3,0,0,0,6,0h4a3,3,0,0,0,6,0h1.5a.5.5,0,0,0,.5-.5v-1A.5.5,0,0,0,19.5,11ZM5,14.5A1.5,1.5,0,1,1,6.5,13,1.5,1.5,0,0,1,5,14.5Zm10,0A1.5,1.5,0,1,1,16.5,13,1.5,1.5,0,0,1,15,14.5ZM17.5,8H13V4.5h1.378L17.5,7.622Z" transform="translate(403 1187)" fill="#1c1c1c"/>
    </g>
  </g>
</svg>
